{
  "accessors": [
    {
      "bufferView": 2,
      "componentType": 5126,
      "count": 30638,
      "max": [
        9.817171096801758,
        14.664900779724121,
        38.767189025878906
      ],
      "min": [
        -7.877660751342773,
        -4.0184550285339355,
        1.1400260925292969
      ],
      "type": "VEC3"
    },
    {
      "bufferView": 2,
      "byteOffset": 367656,
      "componentType": 5126,
      "count": 30638,
      "max": [
        0.9998569488525391,
        0.9999779462814331,
        0.991438627243042
      ],
      "min": [
        -0.999987781047821,
        -0.9999058246612549,
        -0.9992147088050842
      ],
      "type": "VEC3"
    },
    {
      "bufferView": 3,
      "componentType": 5126,
      "count": 30638,
      "max": [
        0.8868076801300049,
        0.9999833703041077,
        0.9999997615814209,
        1.0
      ],
      "min": [
        -0.9215214848518372,
        -0.9997967481613159,
        -1.0,
        -1.0
      ],
      "type": "VEC4"
    },
    {
      "bufferView": 1,
      "componentType": 5126,
      "count": 30638,
      "max": [
        0.9994495511054993,
        0.9721678495407104
      ],
      "min": [
        0.00048828125,
        0.0005287124076858163
      ],
      "type": "VEC2"
    },
    {
      "bufferView": 0,
      "componentType": 5125,
      "count": 150000,
      "type": "SCALAR"
    }
  ],
  "asset": {
    "extras": {
      "author": "Giravolt (https://sketchfab.com/giravolt)",
      "license": "CC-BY-4.0 (http://creativecommons.org/licenses/by/4.0/)",
      "source": "https://sketchfab.com/3d-models/pic-del-montgri-mac-girona-615460fce97746f489397af25689f972",
      "title": "Pic del Montgrí, MAC Girona"
    },
    "generator": "Sketchfab-12.67.0",
    "version": "2.0"
  },
  "bufferViews": [
    {
      "buffer": 0,
      "byteLength": 600000,
      "name": "floatBufferViews",
      "target": 34963
    },
    {
      "buffer": 0,
      "byteLength": 245104,
      "byteOffset": 600000,
      "byteStride": 8,
      "name": "floatBufferViews",
      "target": 34962
    },
    {
      "buffer": 0,
      "byteLength": 735312,
      "byteOffset": 845104,
      "byteStride": 12,
      "name": "floatBufferViews",
      "target": 34962
    },
    {
      "buffer": 0,
      "byteLength": 490208,
      "byteOffset": 1580416,
      "byteStride": 16,
      "name": "floatBufferViews",
      "target": 34962
    }
  ],
  "buffers": [
    {
      "byteLength": 2070624,
      "uri": "scene.bin"
    }
  ],
  "images": [
    {
      "uri": "textures/MACGIR107317_50K_u1_v1_baseColor.jpeg"
    },
    {
      "uri": "textures/MACGIR107317_50K_u1_v1_normal.png"
    }
  ],
  "materials": [
    {
      "doubleSided": true,
      "name": "MACGIR107317_50K_u1_v1",
      "normalTexture": {
        "index": 1
      },
      "pbrMetallicRoughness": {
        "baseColorTexture": {
          "index": 0
        },
        "metallicFactor": 0.0
      }
    }
  ],
  "meshes": [
    {
      "name": "Object_0",
      "primitives": [
        {
          "attributes": {
            "NORMAL": 1,
            "POSITION": 0,
            "TANGENT": 2,
            "TEXCOORD_0": 3
          },
          "indices": 4,
          "material": 0,
          "mode": 4
        }
      ]
    }
  ],
  "nodes": [
    {
      "children": [
        1
      ],
      "matrix": [
        1.0,
        0.0,
        0.0,
        0.0,
        0.0,
        2.220446049250313e-16,
        -1.0,
        0.0,
        0.0,
        1.0,
        2.220446049250313e-16,
        0.0,
        0.0,
        0.0,
        0.0,
        1.0
      ],
      "name": "Sketchfab_model"
    },
    {
      "children": [
        2
      ],
      "name": "MACGIR107317_50K.obj.cleaner.materialmerger.gles"
    },
    {
      "mesh": 0,
      "name": "Object_2"
    }
  ],
  "samplers": [
    {
      "magFilter": 9729,
      "minFilter": 9987,
      "wrapS": 10497,
      "wrapT": 10497
    }
  ],
  "scene": 0,
  "scenes": [
    {
      "name": "Sketchfab_Scene",
      "nodes": [
        0
      ]
    }
  ],
  "textures": [
    {
      "sampler": 0,
      "source": 0
    },
    {
      "sampler": 0,
      "source": 1
    }
  ]
}
